<?xml version="1.0" encoding="UTF-8" standalone="no" ?>
<!DOCTYPE svg PUBLIC "-//W3C//DTD SVG 1.1//EN" "http://www.w3.org/Graphics/SVG/1.1/DTD/svg11.dtd">
<svg xmlns="http://www.w3.org/2000/svg" xmlns:xlink="http://www.w3.org/1999/xlink" version="1.1" width="1080" height="1080" viewBox="0 0 1080 1080" xml:space="preserve">
<desc>Created with Fabric.js 5.2.4</desc>
<defs>
</defs>
<g transform="matrix(1 0 0 1 540 540)" id="857411c6-86e1-4623-b765-181d925c6357"  >
</g>
<g transform="matrix(1 0 0 1 540 540)" id="409cafda-5340-41ef-ae71-dfbefe65604e"  >
<rect style="stroke: none; stroke-width: 1; stroke-dasharray: none; stroke-linecap: butt; stroke-dashoffset: 0; stroke-linejoin: miter; stroke-miterlimit: 4; fill: rgb(255,255,255); fill-rule: nonzero; opacity: 1; visibility: hidden;" vector-effect="non-scaling-stroke"  x="-540" y="-540" rx="0" ry="0" width="1080" height="1080" />
</g>
<g transform="matrix(36.36 0 0 36.36 394.53 539.97)"  >
<path style="stroke: rgb(119,119,119); stroke-width: 1; stroke-dasharray: none; stroke-linecap: butt; stroke-dashoffset: 0; stroke-linejoin: miter; stroke-miterlimit: 4; fill: rgb(119,119,119); fill-rule: evenodd; opacity: 1;" vector-effect="non-scaling-stroke"  transform=" translate(-7, -1041.43)" d="M 10 1035.362 C 10 1032.362 5 1032.362 5 1035.362 C 5 1038.362 12.006 1042.3190000000002 12 1047.362 C 11.994 1052.405 2 1051.362 2 1048.362 C 2 1050.362 8.983 1050.4060000000002 9 1047.362 C 9.022 1043.362 2 1039.362 2 1035.362 C 2 1031.362 10 1030.362 10 1035.362 z" stroke-linecap="round" />
</g>
<g transform="matrix(22.27 0 0 22.27 830.5 540)"  >
<path style="stroke: rgb(119,119,119); stroke-width: 2; stroke-dasharray: none; stroke-linecap: round; stroke-dashoffset: 0; stroke-linejoin: round; stroke-miterlimit: 4; fill: none; fill-rule: nonzero; opacity: 1;"  transform=" translate(-12, -12)" d="M 7 8 L 3 11.6923 L 7 16 M 17 8 L 21 11.6923 L 17 16 M 14 4 L 10 20" stroke-linecap="round" />
</g>
<g transform="matrix(0 0 0 0 0 0)"  >
<g style=""   >
</g>
</g>
<g transform="matrix(0 0 0 0 0 0)"  >
<g style=""   >
</g>
</g>
</svg>